<?xml version="1.0" encoding="utf-8"?>
<!-- Svg Vector Icons : http://www.onlinewebfonts.com/icon -->
<!DOCTYPE svg PUBLIC "-//W3C//DTD SVG 1.1//EN" "http://www.w3.org/Graphics/SVG/1.1/DTD/svg11.dtd">
<svg version="1.1" xmlns="http://www.w3.org/2000/svg" xmlns:xlink="http://www.w3.org/1999/xlink" x="0px" y="0px" viewBox="0 0 256 256" enable-background="new 0 0 256 256" xml:space="preserve">
<metadata> Svg Vector Icons : http://www.onlinewebfonts.com/icon </metadata>
<g><g><g><path fill="#b9a77a " d="M68.3,13c-7.7,2.1-14.8,6.2-19.4,11.2c-3.5,3.8-5,7.1-5.2,11.1c-0.2,3-0.1,3.3,3,9.8l3.1,6.7l-2,1.7C44,56.7,35.6,65.4,32.3,69.6c-1.7,2.3-3.3,4.3-3.5,4.6c-0.2,0.2-1.1,0-2-0.4c-2-1-3.9-0.6-5.5,0.9c-0.6,0.6-1.3,1.8-1.4,2.5c-0.4,1.7,0.8,4.3,2.4,5.1c0.6,0.4,1.1,0.7,1,0.9c-8.9,17.5-12.5,30.5-13.2,47.8c-0.3,7.7,0.2,15.3,1.5,22.4l0.7,4l-1.2,1.8c-2.1,3.1-0.9,6.6,2.6,7.8c1.3,0.5,1.6,1,3,4.8c3,8.4,8.5,18.5,14.3,26.2l2.5,3.4l-2.8,3.3c-3.7,4.3-4.1,4.8-4.6,7.7c-1.5,8.2,5.7,19.9,16.4,26.6c4.9,3.1,9,4.5,13.9,4.8c6.2,0.3,7.9-0.6,13.3-6.9l4.1-4.9l3.8,1.5c12.9,5.2,26.4,7.5,41.8,7c12.8-0.4,23.9-2.6,35.6-7.2c4.4-1.7,4.6-1.8,5-0.9c0.6,1.1,2.8,2.3,4.2,2.3c3,0,5.5-3.6,4.5-6.2c-0.2-0.7-0.5-1.3-0.5-1.4c0,0,1.4-1,3.2-2c5.5-3.2,12.5-8.8,18-14.1c6.4-6.2,10-10.5,14.5-17.2c3.1-4.7,3.5-5.1,4.5-4.7c1.5,0.6,3.4,0,4.7-1.4c2.1-2.3,2.1-4.9-0.1-6.9l-1-0.9l1.8-4.6c3.7-9.2,6.4-19.4,7.5-29.2c0.3-2.4,0.6-4.5,0.8-4.7c0.2-0.2,4.7-2.1,9.9-4.4c10.8-4.5,11.7-5.2,13.2-9.9c1.1-3.5,1.1-12.7,0-18C242.3,95.3,235,81.1,227,73.5c-4-3.8-7-5.5-10.2-5.8c-1.8-0.1-3,0.2-8.4,2.6l-6.2,2.8l-0.9-1.2c-7.1-9.7-18.9-20.6-29.4-27.2c-4.2-2.6-15.9-8.4-16.9-8.4c-0.3,0-0.5-0.4-0.5-1c0-1.8-1.4-4-3-4.8c-2-0.9-3.8-0.6-5.4,1l-1.2,1.2l-5.2-1.2c-9.2-2-12.9-2.4-24.1-2.4c-7.8,0-11.8,0.2-15.2,0.8c-2.5,0.5-4.6,0.7-4.7,0.7c0-0.1-1.3-2.7-2.7-5.9c-3.6-7.9-4.4-9-8.1-10.8c-2.8-1.3-3.4-1.5-8.1-1.6C72.8,12.2,70.8,12.4,68.3,13z M80.7,22.7c0.4,0.4,0.3,0.9-0.4,2.2c-3.6,6.7-16.2,13-23.9,11.9c-3.3-0.5-3.5-0.7-2.2-3.2c2.3-4.3,9.2-9,15.8-10.8C73.7,21.7,79.7,21.7,80.7,22.7z M135,61.5c15.8,2,26.1,13.9,21,24.3c-3.2,6.6-12.4,10.8-22.6,10.2c-17.1-1-29-13.3-23.6-24.5c2.4-5,8.7-8.9,16.2-10C129.9,61,130.7,61,135,61.5z M221,81.3c6.4,6.7,12.1,18.4,14.4,29.4c0.8,3.9,1.2,11.4,0.6,12c-0.6,0.6-4.8-3.9-7.5-7.9c-4.8-7.2-8.7-16.5-10.2-24.3c-0.7-4-1-12-0.3-12C218.2,78.6,219.5,79.8,221,81.3z M87,110.9c13.6,2.2,24.5,11,27.5,22.5c1.5,5.5,0.7,13.1-1.8,18c-8.5,16.8-32,23.1-50.1,13.5c-11-5.9-17.5-17.5-15.8-28.3C49.4,119.6,67.8,107.9,87,110.9z M167.8,155.7c3.4,1.6,5.5,3.5,7.2,6.5c1.2,2.3,1.3,2.8,1.3,7.1c0,4.4-0.1,4.8-1.8,8.2c-5.5,11.2-19.7,15.7-29.5,9.5c-4.5-2.9-6.6-7.3-6.3-13.5c0.1-3.1,0.5-4.4,1.7-6.8c2.5-5.1,7.3-9.2,13-11.3C157.7,153.8,164.1,153.9,167.8,155.7z M45,216.2c6.6,3.3,12.9,10.4,14.1,16c0.2,1.2,0.1,1.5-0.5,1.8c-1.2,0.5-5.6-0.6-8.7-2.2c-7.2-3.6-14.1-11.9-14.1-17c0-1.1,0-1.2,2.6-0.9C40.2,214.1,42.4,214.9,45,216.2z"/></g></g></g>
</svg>